<svg width="2600" height="640" viewBox="0 0 2600 640" fill="none" xmlns="http://www.w3.org/2000/svg">
<rect width="703" height="639.92" rx="152" fill="#FF9100"/>
<path d="M310.051 297.113L336.519 271.606L275.83 213.12L291.335 198.178C310.338 179.864 336.113 169.576 362.987 169.576C389.862 169.576 415.637 179.864 434.64 198.178L436.911 200.366C457.369 220.08 468.861 246.819 468.861 274.7V297.113H521.798V274.7C521.798 233.289 504.728 193.575 474.343 164.293L472.072 162.105C443.142 134.224 403.902 118.561 362.987 118.561C322.073 118.561 282.834 134.224 253.903 162.105L238.398 177.046L177.709 118.561L151.24 144.068V297.113H310.051Z" fill="white"/>
<path d="M412.406 442.475C393.403 460.787 367.629 471.077 340.754 471.077C313.879 471.077 288.104 460.789 269.101 442.475L266.83 440.286C246.373 420.572 234.88 393.832 234.88 365.952V343.539H181.943V365.952C181.943 407.364 199.013 447.077 229.398 476.359L231.669 478.548C260.6 506.427 299.839 522.092 340.754 522.092C381.668 522.092 420.908 506.427 449.838 478.548L465.343 463.605L526.033 522.092L552.501 496.584V343.539H393.691L367.222 369.047L427.912 427.533L412.406 442.475Z" fill="white"/>
<path d="M838.092 387.349C814.003 387.349 796.121 381.141 784.448 368.725C772.775 356.202 766.938 337.26 766.938 311.897C766.938 286.323 772.828 267.062 784.607 254.115C796.387 241.169 814.745 234.695 839.684 234.695C846.794 234.695 853.957 235.491 861.173 237.083C868.495 238.569 874.544 240.797 879.319 243.769C884.201 246.634 886.642 250.136 886.642 254.274C886.642 255.972 885.687 258.625 883.776 262.233C881.972 265.841 879.85 269.078 877.409 271.943C875.075 274.702 873.111 276.082 871.52 276.082C870.777 276.082 869.132 275.339 866.585 273.854C862.552 271.943 858.732 270.458 855.124 269.396C851.516 268.229 847.112 267.646 841.912 267.646C830.77 267.646 822.651 271.201 817.558 278.311C812.464 285.314 809.917 296.139 809.917 310.783C809.917 325.534 812.305 336.464 817.08 343.574C821.962 350.578 829.708 354.08 840.32 354.08C846.157 354.08 851.251 353.496 855.602 352.329C859.952 351.056 864.091 349.464 868.018 347.554C868.76 347.235 869.662 346.864 870.724 346.439C871.785 346.015 872.581 345.803 873.111 345.803C875.021 345.803 877.091 347.182 879.319 349.941C881.654 352.594 883.617 355.672 885.209 359.174C886.907 362.676 887.756 365.382 887.756 367.292C887.756 372.174 884.572 376.1 878.205 379.071C871.838 382.043 864.728 384.165 856.875 385.438C849.022 386.712 842.761 387.349 838.092 387.349ZM972.917 387.349C950.526 387.349 933.44 380.769 921.661 367.61C909.988 354.451 904.151 335.509 904.151 310.783C904.151 286.163 909.988 267.327 921.661 254.274C933.44 241.222 950.526 234.695 972.917 234.695C995.308 234.695 1012.29 241.222 1023.85 254.274C1035.53 267.221 1041.36 286.057 1041.36 310.783C1041.36 335.509 1035.53 354.451 1023.85 367.61C1012.29 380.769 995.308 387.349 972.917 387.349ZM972.917 354.08C981.831 354.08 988.357 350.472 992.496 343.256C996.741 336.04 998.863 325.215 998.863 310.783C998.863 296.457 996.741 285.686 992.496 278.47C988.357 271.254 981.831 267.646 972.917 267.646C955.301 267.646 946.493 282.025 946.493 310.783C946.493 325.109 948.616 335.934 952.86 343.256C957.211 350.472 963.897 354.08 972.917 354.08ZM1087.84 385.438C1076.6 385.438 1070.97 382.467 1070.97 376.524V286.747C1070.97 273.164 1070.07 261.862 1068.27 252.842C1067.74 249.977 1067.47 247.96 1067.47 246.793C1067.47 244.671 1069.43 242.973 1073.36 241.699C1077.39 240.32 1081.9 239.312 1086.89 238.675C1091.98 238.038 1096.07 237.72 1099.15 237.72C1102.44 237.72 1104.72 238.94 1105.99 241.381C1107.37 243.822 1108.59 247.377 1109.65 252.046L1110.61 256.185C1115.06 250.242 1121.01 245.201 1128.44 241.062C1135.97 236.818 1144.04 234.695 1152.63 234.695C1166.85 234.695 1177.36 238.41 1184.15 245.838C1190.94 253.266 1194.34 264.78 1194.34 280.38V376.524C1194.34 382.467 1188.61 385.438 1177.14 385.438H1169.34C1158.1 385.438 1152.47 382.467 1152.47 376.524V286.747C1152.47 281.017 1151.09 276.666 1148.33 273.694C1145.68 270.723 1141.33 269.237 1135.28 269.237C1130.19 269.237 1125.68 270.935 1121.75 274.331C1117.82 277.727 1114.85 281.494 1112.84 285.633V376.524C1112.84 382.467 1107.11 385.438 1095.64 385.438H1087.84ZM1274.88 385.438C1270.42 385.438 1266.82 385.014 1264.06 384.165C1261.4 383.316 1259.71 381.777 1258.96 379.549L1214.07 247.748C1213.97 247.111 1213.76 246.262 1213.44 245.201C1213.12 244.034 1212.96 243.185 1212.96 242.654C1212.96 240.532 1214.34 238.993 1217.1 238.038C1219.86 236.977 1224.21 236.446 1230.15 236.446H1239.38C1243.95 236.446 1247.61 236.924 1250.37 237.879C1253.13 238.728 1254.82 240.214 1255.46 242.336L1272.02 294.547C1272.55 296.457 1274.19 303.355 1276.95 315.24L1279.97 328.771H1281.25C1284.54 312.11 1287.14 300.702 1289.05 294.547L1305.76 242.336C1306.4 240.214 1308.04 238.728 1310.7 237.879C1313.46 236.924 1317.12 236.446 1321.68 236.446H1328.68C1334.52 236.446 1338.76 236.977 1341.42 238.038C1344.18 238.993 1345.56 240.532 1345.56 242.654C1345.56 244.352 1345.29 246.05 1344.76 247.748L1299.71 379.549C1299.08 381.671 1297.38 383.21 1294.62 384.165C1291.97 385.014 1288.41 385.438 1283.95 385.438H1274.88ZM1433.9 387.349C1409.07 387.349 1390.55 380.716 1378.35 367.451C1366.14 354.08 1360.04 335.562 1360.04 311.897C1360.04 285.261 1366.14 265.735 1378.35 253.319C1390.55 240.903 1407.37 234.695 1428.81 234.695C1443.03 234.695 1454.65 237.932 1463.67 244.405C1472.79 250.879 1479.43 259.58 1483.57 270.511C1487.81 281.441 1489.93 293.804 1489.93 307.6C1489.93 309.191 1488.98 311.314 1487.07 313.967C1485.26 316.62 1483.19 319.007 1480.86 321.13C1478.52 323.252 1476.72 324.313 1475.45 324.313H1403.34C1404.29 335.138 1407.48 342.831 1412.89 347.395C1418.41 351.852 1426.05 354.08 1435.81 354.08C1441.12 354.08 1445.89 353.496 1450.14 352.329C1454.49 351.056 1459.1 349.411 1463.99 347.395C1466.96 346.015 1468.97 345.325 1470.04 345.325C1471.95 345.325 1474.01 346.705 1476.24 349.464C1478.58 352.117 1480.54 355.194 1482.13 358.696C1483.83 362.198 1484.68 364.904 1484.68 366.814C1484.68 371.165 1481.71 374.88 1475.77 377.957C1469.93 381.035 1462.98 383.369 1454.91 384.961C1446.95 386.553 1439.95 387.349 1433.9 387.349ZM1449.18 296.457C1449.18 287.755 1447.48 280.804 1444.09 275.604C1440.69 270.299 1435.6 267.646 1428.81 267.646C1414.8 267.646 1406.31 277.249 1403.34 296.457H1449.18ZM1535.46 385.438C1524.21 385.438 1518.58 382.467 1518.58 376.524V286.747C1518.58 273.164 1517.68 261.862 1515.88 252.842C1515.35 249.977 1515.08 247.96 1515.08 246.793C1515.08 244.671 1517.05 242.973 1520.97 241.699C1525.01 240.32 1529.52 239.312 1534.5 238.675C1539.6 238.038 1543.68 237.72 1546.76 237.72C1550.05 237.72 1552.33 238.94 1553.6 241.381C1554.98 243.822 1556.2 247.377 1557.27 252.046L1558.22 256.185C1561.83 249.605 1565.97 244.405 1570.64 240.585C1575.41 236.659 1581.51 234.695 1588.94 234.695C1595.1 234.695 1599.34 236.287 1601.68 239.471C1604.01 242.548 1605.18 246.05 1605.18 249.977C1605.18 252.099 1604.81 255.123 1604.06 259.05C1603.32 262.87 1602.26 266.266 1600.88 269.237C1599.5 272.209 1597.96 273.694 1596.26 273.694C1595.1 273.694 1593.35 273.376 1591.01 272.739C1587.83 271.89 1585.12 271.466 1582.89 271.466C1577.69 271.466 1573.13 272.951 1569.2 275.923C1565.38 278.788 1562.47 282.025 1560.45 285.633V376.524C1560.45 382.467 1554.72 385.438 1543.26 385.438H1535.46ZM1667.58 387.349C1654.1 387.349 1643.81 383.581 1636.7 376.047C1629.69 368.406 1626.19 356.839 1626.19 341.346V270.033H1621.73C1618.76 270.033 1616.59 268.919 1615.21 266.69C1613.93 264.462 1613.3 260.854 1613.3 255.866V251.091C1613.3 246.103 1613.93 242.495 1615.21 240.267C1616.59 238.038 1618.76 236.924 1621.73 236.924H1626.19L1629.85 210.022C1630.7 204.08 1635.79 201.108 1645.13 201.108H1654.05C1658.93 201.108 1662.48 201.851 1664.71 203.337C1667.05 204.823 1668.21 207.051 1668.21 210.022V236.924H1682.06C1685.03 236.924 1687.16 238.038 1688.43 240.267C1689.81 242.495 1690.5 246.103 1690.5 251.091V255.866C1690.5 260.854 1689.81 264.462 1688.43 266.69C1687.16 268.919 1685.03 270.033 1682.06 270.033H1668.21V341.823C1668.21 346.174 1668.96 349.305 1670.44 351.215C1672.03 353.125 1674.63 354.08 1678.24 354.08C1679.3 354.08 1680.74 353.921 1682.54 353.603C1684.34 353.178 1685.46 352.966 1685.88 352.966C1687.58 352.966 1689.07 354.398 1690.34 357.264C1691.72 360.023 1692.78 363.1 1693.52 366.496C1694.37 369.892 1694.8 372.174 1694.8 373.341C1694.8 382.679 1685.72 387.349 1667.58 387.349ZM1787.28 387.349C1762.45 387.349 1743.93 380.716 1731.73 367.451C1719.52 354.08 1713.42 335.562 1713.42 311.897C1713.42 285.261 1719.52 265.735 1731.73 253.319C1743.93 240.903 1760.75 234.695 1782.19 234.695C1796.41 234.695 1808.03 237.932 1817.05 244.405C1826.17 250.879 1832.81 259.58 1836.94 270.511C1841.19 281.441 1843.31 293.804 1843.31 307.6C1843.31 309.191 1842.36 311.314 1840.45 313.967C1838.64 316.62 1836.57 319.007 1834.24 321.13C1831.9 323.252 1830.1 324.313 1828.83 324.313H1756.72C1757.67 335.138 1760.86 342.831 1766.27 347.395C1771.79 351.852 1779.43 354.08 1789.19 354.08C1794.5 354.08 1799.27 353.496 1803.52 352.329C1807.87 351.056 1812.48 349.411 1817.37 347.395C1820.34 346.015 1822.35 345.325 1823.41 345.325C1825.32 345.325 1827.39 346.705 1829.62 349.464C1831.96 352.117 1833.92 355.194 1835.51 358.696C1837.21 362.198 1838.06 364.904 1838.06 366.814C1838.06 371.165 1835.09 374.88 1829.14 377.957C1823.31 381.035 1816.36 383.369 1808.29 384.961C1800.33 386.553 1793.33 387.349 1787.28 387.349ZM1802.56 296.457C1802.56 287.755 1800.86 280.804 1797.47 275.604C1794.07 270.299 1788.98 267.646 1782.19 267.646C1768.18 267.646 1759.69 277.249 1756.72 296.457H1802.56ZM1888.84 385.438C1877.59 385.438 1871.96 382.467 1871.96 376.524V286.747C1871.96 273.164 1871.06 261.862 1869.26 252.842C1868.73 249.977 1868.46 247.96 1868.46 246.793C1868.46 244.671 1870.43 242.973 1874.35 241.699C1878.38 240.32 1882.89 239.312 1887.88 238.675C1892.98 238.038 1897.06 237.72 1900.14 237.72C1903.43 237.72 1905.71 238.94 1906.98 241.381C1908.36 243.822 1909.58 247.377 1910.64 252.046L1911.6 256.185C1915.21 249.605 1919.35 244.405 1924.02 240.585C1928.79 236.659 1934.89 234.695 1942.32 234.695C1948.48 234.695 1952.72 236.287 1955.06 239.471C1957.39 242.548 1958.56 246.05 1958.56 249.977C1958.56 252.099 1958.19 255.123 1957.44 259.05C1956.7 262.87 1955.64 266.266 1954.26 269.237C1952.88 272.209 1951.34 273.694 1949.64 273.694C1948.48 273.694 1946.73 273.376 1944.39 272.739C1941.21 271.89 1938.5 271.466 1936.27 271.466C1931.07 271.466 1926.51 272.951 1922.58 275.923C1918.76 278.788 1915.84 282.025 1913.83 285.633V376.524C1913.83 382.467 1908.1 385.438 1896.64 385.438H1888.84ZM2089.08 387.349C2075.61 387.349 2065.31 383.581 2058.2 376.047C2051.2 368.406 2047.7 356.839 2047.7 341.346V270.033H2043.24C2040.27 270.033 2038.09 268.919 2036.71 266.69C2035.44 264.462 2034.8 260.854 2034.8 255.866V251.091C2034.8 246.103 2035.44 242.495 2036.71 240.267C2038.09 238.038 2040.27 236.924 2043.24 236.924H2047.7L2051.36 210.022C2052.21 204.08 2057.3 201.108 2066.64 201.108H2075.55C2080.44 201.108 2083.99 201.851 2086.22 203.337C2088.55 204.823 2089.72 207.051 2089.72 210.022V236.924H2103.57C2106.54 236.924 2108.66 238.038 2109.94 240.267C2111.32 242.495 2112.01 246.103 2112.01 251.091V255.866C2112.01 260.854 2111.32 264.462 2109.94 266.69C2108.66 268.919 2106.54 270.033 2103.57 270.033H2089.72V341.823C2089.72 346.174 2090.46 349.305 2091.95 351.215C2093.54 353.125 2096.14 354.08 2099.75 354.08C2100.81 354.08 2102.24 353.921 2104.05 353.603C2105.85 353.178 2106.97 352.966 2107.39 352.966C2109.09 352.966 2110.57 354.398 2111.85 357.264C2113.23 360.023 2114.29 363.1 2115.03 366.496C2115.88 369.892 2116.3 372.174 2116.3 373.341C2116.3 382.679 2107.23 387.349 2089.08 387.349ZM2181.41 387.349C2167.19 387.349 2156.68 383.634 2149.89 376.206C2143.1 368.672 2139.7 357.051 2139.7 341.346V245.36C2139.7 242.389 2141.08 240.16 2143.84 238.675C2146.6 237.189 2150.9 236.446 2156.74 236.446H2164.54C2170.37 236.446 2174.67 237.189 2177.43 238.675C2180.19 240.16 2181.57 242.389 2181.57 245.36V334.979C2181.57 340.815 2182.89 345.219 2185.55 348.19C2188.2 351.162 2192.55 352.647 2198.6 352.647C2203.8 352.647 2208.31 351.003 2212.13 347.713C2216.06 344.317 2219.08 340.497 2221.2 336.252V245.36C2221.2 242.389 2222.58 240.16 2225.34 238.675C2228.1 237.189 2232.4 236.446 2238.24 236.446H2246.04C2251.87 236.446 2256.17 237.189 2258.93 238.675C2261.69 240.16 2263.07 242.389 2263.07 245.36V334.979C2263.07 343.893 2263.28 350.896 2263.71 355.99C2264.24 360.978 2264.87 365.647 2265.62 369.998C2266.15 372.863 2266.41 374.88 2266.41 376.047C2266.41 378.169 2264.45 379.92 2260.52 381.3C2256.6 382.679 2252.08 383.688 2246.99 384.324C2242 384.961 2237.97 385.279 2234.89 385.279C2231.5 385.279 2229.06 383.953 2227.57 381.3C2226.19 378.541 2225.08 374.667 2224.23 369.68L2223.43 365.7C2218.98 371.749 2212.98 376.896 2205.45 381.141C2198.02 385.279 2190 387.349 2181.41 387.349ZM2376.72 387.349C2368.34 387.349 2360.8 385.385 2354.12 381.459C2347.43 377.426 2342.39 372.28 2339 366.019L2338.2 369.361C2337.25 373.5 2336.5 376.418 2335.97 378.116C2335.23 381.088 2333.58 383.051 2331.04 384.006C2328.49 384.961 2324.72 385.438 2319.74 385.438H2316.39C2305.04 385.438 2299.36 382.467 2299.36 376.524V180.733C2299.36 177.656 2300.74 175.374 2303.5 173.889C2306.26 172.297 2310.56 171.501 2316.39 171.501H2324.19C2335.55 171.501 2341.23 174.578 2341.23 180.733V243.45C2349.18 237.614 2358.79 234.695 2370.04 234.695C2382.56 234.695 2393.28 237.826 2402.19 244.087C2411.21 250.242 2418.06 259.05 2422.73 270.511C2427.39 281.972 2429.73 295.396 2429.73 310.783C2429.73 326.807 2427.45 340.603 2422.88 352.17C2418.43 363.631 2412.17 372.386 2404.1 378.435C2396.14 384.377 2387.02 387.349 2376.72 387.349ZM2364.47 352.966C2379.64 352.966 2387.23 338.905 2387.23 310.783C2387.23 282.025 2378.47 267.646 2360.96 267.646C2354.49 267.646 2347.91 269.45 2341.23 273.058V336.252C2347.7 347.395 2355.45 352.966 2364.47 352.966ZM2527.47 387.349C2502.63 387.349 2484.12 380.716 2471.91 367.451C2459.71 354.08 2453.61 335.562 2453.61 311.897C2453.61 285.261 2459.71 265.735 2471.91 253.319C2484.12 240.903 2500.94 234.695 2522.37 234.695C2536.59 234.695 2548.21 237.932 2557.23 244.405C2566.36 250.879 2572.99 259.58 2577.13 270.511C2581.37 281.441 2583.5 293.804 2583.5 307.6C2583.5 309.191 2582.54 311.314 2580.63 313.967C2578.83 316.62 2576.76 319.007 2574.42 321.13C2572.09 323.252 2570.29 324.313 2569.01 324.313H2496.9C2497.86 335.138 2501.04 342.831 2506.45 347.395C2511.97 351.852 2519.61 354.08 2529.38 354.08C2534.68 354.08 2539.46 353.496 2543.7 352.329C2548.05 351.056 2552.67 349.411 2557.55 347.395C2560.52 346.015 2562.54 345.325 2563.6 345.325C2565.51 345.325 2567.58 346.705 2569.81 349.464C2572.14 352.117 2574.11 355.194 2575.7 358.696C2577.4 362.198 2578.24 364.904 2578.24 366.814C2578.24 371.165 2575.27 374.88 2569.33 377.957C2563.49 381.035 2556.54 383.369 2548.48 384.961C2540.52 386.553 2533.51 387.349 2527.47 387.349ZM2542.75 296.457C2542.75 287.755 2541.05 280.804 2537.65 275.604C2534.26 270.299 2529.16 267.646 2522.37 267.646C2508.36 267.646 2499.87 277.249 2496.9 296.457H2542.75Z" fill="white"/>
</svg>
